<svg id="Layer_1" data-name="Layer 1" xmlns="http://www.w3.org/2000/svg" viewBox="0 0 1164 1164"><defs><style>.cls-1,.cls-2,.cls-3{fill:none;stroke:#0f9ad6;stroke-miterlimit:10;}.cls-1{stroke-width:140px;}.cls-2{stroke-width:60px;}.cls-3{stroke-width:50px;}</style></defs><title>wheel</title><circle class="cls-1" cx="582" cy="582" r="512"/><circle class="cls-2" cx="581.5" cy="582.5" r="167.5"/><path class="cls-3" d="M561.93,262.28A179.57,179.57,0,0,0,738.25,116.66a480.49,480.49,0,0,0-352.76-.7A179.57,179.57,0,0,0,561.93,262.28Z" transform="translate(20 20)"/><path class="cls-3" d="M286.11,413.75A179.48,179.48,0,0,0,192.39,256,476.76,476.76,0,0,0,82.28,561.48q0,15.25.94,30.28a179.62,179.62,0,0,0,202.89-178Z" transform="translate(20 20)"/><path class="cls-3" d="M279.57,770A178.88,178.88,0,0,0,157,818.37c64.48,101.19,165.93,176.53,285.32,207A179.58,179.58,0,0,0,279.57,770Z" transform="translate(20 20)"/><path class="cls-3" d="M664.79,949.51a178.82,178.82,0,0,0,16.58,75.43c119.1-30.85,220.2-106.39,284.34-207.66A179.51,179.51,0,0,0,664.79,949.51Z" transform="translate(20 20)"/><path class="cls-3" d="M829.35,416.56a179.6,179.6,0,0,0,209.31,177q1.06-15.93,1.07-32.12A476.77,476.77,0,0,0,929.27,255.62,179.51,179.51,0,0,0,829.35,416.56Z" transform="translate(20 20)"/></svg>